<svg width="92" height="92" viewBox="0 0 92 92" fill="none" xmlns="http://www.w3.org/2000/svg">
<circle opacity="0.6" cx="46" cy="46" r="46" fill="#222222"/>
<g clip-path="url(#clip0_116_2927)">
<path d="M57.3227 40.626L44.6053 31.3006C43.612 30.5733 42.4367 30.1352 41.2097 30.0349C39.9827 29.9346 38.7518 30.1761 37.6536 30.7325C36.5554 31.2889 35.6327 32.1386 34.9878 33.1873C34.3429 34.236 34.001 35.4428 34 36.674V55.334C33.9981 56.5663 34.3382 57.775 34.9825 58.8255C35.6267 59.876 36.5499 60.7271 37.6492 61.2841C38.7485 61.8411 39.9808 62.082 41.2089 61.9802C42.437 61.8784 43.6128 61.4377 44.6053 60.7073L57.3227 51.382C58.1665 50.7627 58.8527 49.9534 59.3256 49.0197C59.7986 48.086 60.0451 47.054 60.0451 46.0073C60.0451 44.9606 59.7986 43.9286 59.3256 42.9949C58.8527 42.0611 58.1665 41.2519 57.3227 40.6326V40.626Z" fill="white"/>
</g>
<defs>
<clipPath id="clip0_116_2927">
<rect width="32" height="32" fill="white" transform="translate(30 30)"/>
</clipPath>
</defs>
</svg>
